<?xml version="1.0" encoding="utf-8"?>
<svg xmlns="http://www.w3.org/2000/svg" xmlns:xlink="http://www.w3.org/1999/xlink" style="margin: auto; background: rgba(241, 242, 243, 0); display: block; shape-rendering: auto;" width="184px" height="184px" viewBox="0 0 100 100" preserveAspectRatio="xMidYMid">
<g transform="rotate(0 50 50)">
  <rect x="48.5" y="28.5" rx="0" ry="0" width="3" height="13" fill="#1c4595">
    <animate attributeName="opacity" values="1;0" keyTimes="0;1" dur="1.8518518518518516s" begin="-1.7543859649122804s" repeatCount="indefinite"></animate>
  </rect>
</g><g transform="rotate(18.94736842105263 50 50)">
  <rect x="48.5" y="28.5" rx="0" ry="0" width="3" height="13" fill="#1c4595">
    <animate attributeName="opacity" values="1;0" keyTimes="0;1" dur="1.8518518518518516s" begin="-1.6569200779727093s" repeatCount="indefinite"></animate>
  </rect>
</g><g transform="rotate(37.89473684210526 50 50)">
  <rect x="48.5" y="28.5" rx="0" ry="0" width="3" height="13" fill="#1c4595">
    <animate attributeName="opacity" values="1;0" keyTimes="0;1" dur="1.8518518518518516s" begin="-1.559454191033138s" repeatCount="indefinite"></animate>
  </rect>
</g><g transform="rotate(56.8421052631579 50 50)">
  <rect x="48.5" y="28.5" rx="0" ry="0" width="3" height="13" fill="#1c4595">
    <animate attributeName="opacity" values="1;0" keyTimes="0;1" dur="1.8518518518518516s" begin="-1.461988304093567s" repeatCount="indefinite"></animate>
  </rect>
</g><g transform="rotate(75.78947368421052 50 50)">
  <rect x="48.5" y="28.5" rx="0" ry="0" width="3" height="13" fill="#1c4595">
    <animate attributeName="opacity" values="1;0" keyTimes="0;1" dur="1.8518518518518516s" begin="-1.3645224171539958s" repeatCount="indefinite"></animate>
  </rect>
</g><g transform="rotate(94.73684210526316 50 50)">
  <rect x="48.5" y="28.5" rx="0" ry="0" width="3" height="13" fill="#1c4595">
    <animate attributeName="opacity" values="1;0" keyTimes="0;1" dur="1.8518518518518516s" begin="-1.2670565302144248s" repeatCount="indefinite"></animate>
  </rect>
</g><g transform="rotate(113.6842105263158 50 50)">
  <rect x="48.5" y="28.5" rx="0" ry="0" width="3" height="13" fill="#1c4595">
    <animate attributeName="opacity" values="1;0" keyTimes="0;1" dur="1.8518518518518516s" begin="-1.1695906432748535s" repeatCount="indefinite"></animate>
  </rect>
</g><g transform="rotate(132.6315789473684 50 50)">
  <rect x="48.5" y="28.5" rx="0" ry="0" width="3" height="13" fill="#1c4595">
    <animate attributeName="opacity" values="1;0" keyTimes="0;1" dur="1.8518518518518516s" begin="-1.0721247563352825s" repeatCount="indefinite"></animate>
  </rect>
</g><g transform="rotate(151.57894736842104 50 50)">
  <rect x="48.5" y="28.5" rx="0" ry="0" width="3" height="13" fill="#1c4595">
    <animate attributeName="opacity" values="1;0" keyTimes="0;1" dur="1.8518518518518516s" begin="-0.9746588693957113s" repeatCount="indefinite"></animate>
  </rect>
</g><g transform="rotate(170.52631578947367 50 50)">
  <rect x="48.5" y="28.5" rx="0" ry="0" width="3" height="13" fill="#1c4595">
    <animate attributeName="opacity" values="1;0" keyTimes="0;1" dur="1.8518518518518516s" begin="-0.8771929824561402s" repeatCount="indefinite"></animate>
  </rect>
</g><g transform="rotate(189.47368421052633 50 50)">
  <rect x="48.5" y="28.5" rx="0" ry="0" width="3" height="13" fill="#1c4595">
    <animate attributeName="opacity" values="1;0" keyTimes="0;1" dur="1.8518518518518516s" begin="-0.779727095516569s" repeatCount="indefinite"></animate>
  </rect>
</g><g transform="rotate(208.42105263157896 50 50)">
  <rect x="48.5" y="28.5" rx="0" ry="0" width="3" height="13" fill="#1c4595">
    <animate attributeName="opacity" values="1;0" keyTimes="0;1" dur="1.8518518518518516s" begin="-0.6822612085769979s" repeatCount="indefinite"></animate>
  </rect>
</g><g transform="rotate(227.3684210526316 50 50)">
  <rect x="48.5" y="28.5" rx="0" ry="0" width="3" height="13" fill="#1c4595">
    <animate attributeName="opacity" values="1;0" keyTimes="0;1" dur="1.8518518518518516s" begin="-0.5847953216374268s" repeatCount="indefinite"></animate>
  </rect>
</g><g transform="rotate(246.31578947368422 50 50)">
  <rect x="48.5" y="28.5" rx="0" ry="0" width="3" height="13" fill="#1c4595">
    <animate attributeName="opacity" values="1;0" keyTimes="0;1" dur="1.8518518518518516s" begin="-0.48732943469785567s" repeatCount="indefinite"></animate>
  </rect>
</g><g transform="rotate(265.2631578947368 50 50)">
  <rect x="48.5" y="28.5" rx="0" ry="0" width="3" height="13" fill="#1c4595">
    <animate attributeName="opacity" values="1;0" keyTimes="0;1" dur="1.8518518518518516s" begin="-0.3898635477582845s" repeatCount="indefinite"></animate>
  </rect>
</g><g transform="rotate(284.2105263157895 50 50)">
  <rect x="48.5" y="28.5" rx="0" ry="0" width="3" height="13" fill="#1c4595">
    <animate attributeName="opacity" values="1;0" keyTimes="0;1" dur="1.8518518518518516s" begin="-0.2923976608187134s" repeatCount="indefinite"></animate>
  </rect>
</g><g transform="rotate(303.1578947368421 50 50)">
  <rect x="48.5" y="28.5" rx="0" ry="0" width="3" height="13" fill="#1c4595">
    <animate attributeName="opacity" values="1;0" keyTimes="0;1" dur="1.8518518518518516s" begin="-0.19493177387914226s" repeatCount="indefinite"></animate>
  </rect>
</g><g transform="rotate(322.10526315789474 50 50)">
  <rect x="48.5" y="28.5" rx="0" ry="0" width="3" height="13" fill="#1c4595">
    <animate attributeName="opacity" values="1;0" keyTimes="0;1" dur="1.8518518518518516s" begin="-0.09746588693957113s" repeatCount="indefinite"></animate>
  </rect>
</g><g transform="rotate(341.05263157894734 50 50)">
  <rect x="48.5" y="28.5" rx="0" ry="0" width="3" height="13" fill="#1c4595">
    <animate attributeName="opacity" values="1;0" keyTimes="0;1" dur="1.8518518518518516s" begin="0s" repeatCount="indefinite"></animate>
  </rect>
</g>
<!-- [ldio] generated by https://loading.io/ --></svg>